#!OML:ASF F:\VICON\USERDATA\INSTALL\Justin_Nancy\Justin_Nancy.ASF
:FULLY-SPECIFIED
:DEGREES
66
root 0.237783 16.2276 -20.8053 23.5511 -1.90528 3.88772
lowerback 14.4081 -1.77344 -4.71619
upperback 1.81986 -2.97898 1.35644
thorax -5.82525 -1.33584 4.67241
lowerneck -21.1496 -3.24336 -9.77579
upperneck 0.699436 -2.62928 10.4831
head 3.83213 -0.758937 4.64328
rclavicle -4.3832e-014 1.93815e-014
rhumerus -72.883 3.57969 -77.7415
rradius 97.9109
rwrist -15.5745
rhand -22.8064 27.5598
rfingers 7.12502
rthumb 3.6301 -2.38903
lclavicle -4.3832e-014 1.93815e-014
lhumerus -25.0472 -17.3411 88.2818
lradius 132.989
lwrist 20.9673
lhand -17.2633 4.72941
lfingers 7.12502
lthumb 8.98125 34.5182
rfemur -71.9816 -2.55618 17.01
rtibia 79.1836
rfoot -10.9599 2.60069
rtoes -13.154
lfemur 0.948968 -5.4692 -25.3887
ltibia 26.0968
lfoot 27.3072 -9.74832
ltoes -0.60814
67
root 0.249299 16.2658 -20.3435 23.1391 -2.40786 3.92186
lowerback 14.4474 -1.73345 -4.55154
upperback 1.84113 -2.90594 1.30357
thorax -5.84369 -1.30426 4.51082
lowerneck -20.9251 -3.11793 -9.83058
upperneck 0.644862 -2.44416 10.2125
head 3.75641 -0.689483 4.58179
rclavicle 1.89839e-014 -9.93923e-016
rhumerus -72.311 3.61586 -77.7975
rradius 97.0549
rwrist -16.7601
rhand -22.8038 27.3288
rfingers 7.12502
rthumb 3.63256 -2.62002
lclavicle 1.89839e-014 -9.93923e-016
lhumerus -26.6529 -18.2388 88.5169
lradius 132.211
lwrist 20.8526
lhand -16.9334 5.69177
lfingers 7.12502
lthumb 9.29957 35.4667
rfemur -71.1844 -2.54088 17.1889
rtibia 77.022
rfoot -10.793 2.65283
rtoes -14.4032
lfemur 2.61093 -7.73039 -26.0742
ltibia 24.1128
lfoot 33.3494 -8.63955
ltoes -4.99597
68
root 0.262472 16.3057 -19.8809 22.6827 -2.89127 4.15225
lowerback 14.3354 -1.71182 -4.55807
upperback 2.00127 -2.87724 1.20038
thorax -5.61958 -1.30192 4.38823
lowerneck -20.6286 -2.97939 -9.96319
upperneck 0.519649 -2.23494 10.0689
head 3.65052 -0.602752 4.57562
rclavicle -6.77856e-014 2.78299e-014
rhumerus -71.2732 3.74744 -77.965
rradius 96.1797
rwrist -17.5772
rhand -23.1878 26.5511
rfingers 7.12502
rthumb 3.2617 -3.40368
lclavicle -6.77856e-014 2.78299e-014
lhumerus -28.1377 -18.8652 88.7709
lradius 130.711
lwrist 21.4324
lhand -16.6471 6.73472
lfingers 7.12502
lthumb 9.5758 36.4971
rfemur -70.1782 -2.7911 17.2862
rtibia 75.2146
rfoot -10.5504 2.90894
rtoes -15.508
lfemur 3.74669 -9.20309 -26.9394
ltibia 23.2363
lfoot 36.5542 -9.82802
ltoes -11.7308
69
root 0.266774 16.3555 -19.4502 22.3938 -3.4531 4.30449
lowerback 14.4144 -1.54749 -4.77792
upperback 2.08962 -2.69634 1.20998
thorax -5.57729 -1.2123 4.49192
lowerneck -20.473 -2.91834 -10.0372
upperneck 0.471457 -2.12459 9.75756
head 3.59425 -0.569928 4.49686
rclavicle -1.32192e-014 7.95139e-016
rhumerus -69.8495 3.78757 -77.9802
rradius 95.2021
rwrist -18.0533
rhand -23.4809 25.8508
rfingers 7.12502
rthumb 2.9787 -4.1081
lclavicle -1.32192e-014 7.95139e-016
lhumerus -29.566 -19.1036 89.1709
lradius 128.313
lwrist 22.0539
lhand -16.1279 7.72952
lfingers 7.12502
lthumb 10.0767 37.4683
rfemur -69.2228 -2.82835 17.4779
rtibia 73.5937
rfoot -10.3441 3.2381
rtoes -16.3681
lfemur 3.727 -9.19834 -27.4618
ltibia 23.9717
lfoot 38.8039 -12.2491
ltoes -12.2431
70
root 0.264071 16.3992 -19.0327 21.9841 -3.79029 4.46031
lowerback 14.822 -1.41249 -4.97333
upperback 2.18264 -2.56185 1.28426
thorax -5.7046 -1.13927 4.67434
lowerneck -20.7203 -2.90445 -10.1593
upperneck 0.633786 -2.03893 9.44369
head 3.665 -0.5401 4.42472
rclavicle -1.25234e-014 -3.37934e-015
rhumerus -67.9763 3.71037 -77.9696
rradius 93.9975
rwrist -17.9767
rhand -23.3843 25.1427
rfingers 7.12502
rthumb 3.07199 -4.81488
lclavicle -1.25234e-014 -3.37934e-015
lhumerus -30.8221 -18.9552 89.4211
lradius 125.332
lwrist 22.1371
lhand -15.3686 8.95046
lfingers 7.12502
lthumb 10.8093 38.6523
rfemur -67.8925 -3.04793 17.802
rtibia 72.2963
rfoot -10.6445 3.54089
rtoes -16.6333
lfemur 3.11461 -8.13244 -27.7143
ltibia 26.3616
lfoot 40.1291 -13.1883
ltoes -4.51096
71
root 0.255872 16.4386 -18.6238 21.7305 -3.85095 4.77721
lowerback 15.1647 -1.39502 -5.15253
upperback 2.16729 -2.58179 1.32796
thorax -5.89662 -1.13731 4.84354
lowerneck -20.6721 -2.80661 -10.183
upperneck 0.696132 -1.87802 9.00279
head 3.65121 -0.486908 4.30138
rclavicle 2.20651e-014 -2.78299e-015
rhumerus -65.9357 3.63927 -78.1515
rradius 92.6998
rwrist -17.6675
rhand -23.5016 24.701
rfingers 7.12502
rthumb 2.95866 -5.25818
lclavicle 2.20651e-014 -2.78299e-015
lhumerus -32.0658 -18.3561 89.612
lradius 121.745
lwrist 21.4541
lhand -14.7498 9.2981
lfingers 7.12502
lthumb 11.4061 38.9679
rfemur -66.5461 -3.57493 18.041
rtibia 71.321
rfoot -11.098 3.95821
rtoes -16.8878
lfemur 1.82173 -6.8423 -27.9321
ltibia 29.9082
lfoot 39.5137 -12.2004
ltoes 2.33455
72
root 0.248265 16.4778 -18.2112 21.6004 -3.87368 4.88746
lowerback 15.2072 -1.38911 -5.12738
upperback 2.28955 -2.56494 1.3913
thorax -5.78926 -1.13561 4.89202
lowerneck -20.8159 -2.6861 -10.0828
upperneck 0.717738 -1.69738 8.56162
head 3.65143 -0.419029 4.16026
rclavicle 7.17613e-014 -8.34896e-015
rhumerus -63.2201 3.51873 -78.4706
rradius 91.002
rwrist -17.712
rhand -23.6936 25.1758
rfingers 7.12502
rthumb 2.77329 -4.78593
lclavicle 7.17613e-014 -8.34896e-015
lhumerus -33.339 -17.0143 89.7711
lradius 117.796
lwrist 19.4054
lhand -14.3733 9.08159
lfingers 7.12502
lthumb 11.7691 38.7309
rfemur -65.1235 -4.12018 18.5257
rtibia 70.6045
rfoot -11.3372 4.30831
rtoes -17.0731
lfemur 0.101069 -5.52733 -27.9684
ltibia 34.0091
lfoot 38.365 -9.68212
ltoes 7.46615
73
root 0.247609 16.519 -17.7841 21.2172 -3.94543 4.80906
lowerback 15.3214 -1.33103 -4.94178
upperback 2.58361 -2.44834 1.53763
thorax -5.55282 -1.09603 4.91721
lowerneck -21.0822 -2.66492 -10.1318
upperneck 0.60314 -1.59739 8.15669
head 3.63706 -0.387363 4.04753
rclavicle 2.32578e-014 -1.27222e-014
rhumerus -59.9682 3.48222 -78.7251
rradius 89.0024
rwrist -18.3048
rhand -23.5641 25.8814
rfingers 7.12502
rthumb 2.8983 -4.07861
lclavicle 2.32578e-014 -1.27222e-014
lhumerus -34.4295 -15.1509 89.7266
lradius 113.629
lwrist 16.0301
lhand -14.3229 9.6102
lfingers 7.12502
lthumb 11.8177 39.2568
rfemur -63.0872 -4.64921 19.1392
rtibia 70.0055
rfoot -11.4043 4.45898
rtoes -17.2218
lfemur -1.58241 -4.16697 -27.9383
ltibia 38.4828
lfoot 37.0306 -5.94635
ltoes 11.167
74
root 0.245584 16.5697 -17.3583 20.7988 -3.81859 4.56395
lowerback 15.5426 -1.32714 -4.47681
upperback 2.87248 -2.36004 1.73017
thorax -5.38698 -1.07126 4.84292
lowerneck -21.0335 -2.71205 -10.2787
upperneck 0.173191 -1.59339 7.88649
head 3.49142 -0.400018 3.98336
rclavicle -1.98785e-016 1.63003e-014
rhumerus -56.6551 3.61658 -79.1602
rradius 87.0669
rwrist -19.2224
rhand -23.7246 26.2398
rfingers 7.12502
rthumb 2.74336 -3.72232
lclavicle -1.98785e-016 1.63003e-014
lhumerus -35.0868 -13.1706 89.353
lradius 108.821
lwrist 11.9549
lhand -14.6738 9.50657
lfingers 7.12502
lthumb 11.4794 39.1723
rfemur -60.6387 -5.20099 19.8749
rtibia 69.39
rfoot -11.3943 4.22024
rtoes -17.1626
lfemur -3.52959 -3.14644 -27.6883
ltibia 43.231
lfoot 34.8807 -2.37905
ltoes 10.8713
75
root 0.236841 16.621 -16.9416 20.5702 -3.45165 4.38609
lowerback 15.8083 -1.36001 -3.9197
upperback 2.97946 -2.31084 1.8705
thorax -5.44043 -1.05533 4.67486
lowerneck -21.0848 -2.7388 -10.2175
upperneck 0.0605259 -1.60777 7.48274
head 3.4566 -0.427838 3.84243
rclavicle 3.97569e-016 -1.51076e-014
rhumerus -53.3795 3.77153 -79.7703
rradius 85.167
rwrist -20.409
rhand -24.146 26.0898
rfingers 7.12502
rthumb 2.33635 -3.87719
lclavicle 3.97569e-016 -1.51076e-014
lhumerus -35.7264 -11.0319 88.8201
lradius 103.625
lwrist 8.04576
lhand -15.3747 8.46551
lfingers 7.12502
lthumb 10.8033 38.1677
rfemur -58.2228 -5.86099 20.5349
rtibia 68.725
rfoot -11.3915 3.62187
rtoes -13.8584
lfemur -6.23977 -2.54611 -27.3781
ltibia 48.2309
lfoot 33.7791 0.339106
ltoes 10.3168
76
root 0.226585 16.6535 -16.519 20.1017 -3.25959 3.90984
lowerback 16.4797 -1.31841 -3.20068
upperback 2.98543 -2.13997 2.07724
thorax -5.83688 -0.970698 4.48219
lowerneck -21.3002 -2.71773 -10.1109
upperneck 0.336927 -1.55321 6.90141
head 3.55683 -0.432303 3.64467
rclavicle 9.93923e-015 -1.19271e-014
rhumerus -50.0488 4.21442 -80.4325
rradius 83.0873
rwrist -21.9072
rhand -24.6598 25.3349
rfingers 7.12502
rthumb 1.84018 -4.63691
lclavicle 9.93923e-015 -1.19271e-014
lhumerus -36.5824 -8.49523 88.1101
lradius 98.3191
lwrist 5.20677
lhand -16.4432 7.98989
lfingers 7.12502
lthumb 9.77259 37.7431
rfemur -55.2633 -6.20688 21.3254
rtibia 67.9477
rfoot -12.1837 2.62201
rtoes -11.0449
lfemur -8.96039 -1.60402 -26.8175
ltibia 53.4169
lfoot 33.651 1.96803
ltoes 11.3163
77
root 0.22151 16.6509 -16.0985 19.5097 -3.40884 3.38962
lowerback 17.0503 -1.18601 -2.56263
upperback 3.13191 -1.85268 2.26939
thorax -6.0326 -0.838087 4.28401
lowerneck -21.2497 -2.72059 -10.2836
upperneck 0.282529 -1.49644 6.6083
head 3.52316 -0.422157 3.58327
rclavicle 4.21423e-014 -3.57812e-015
rhumerus -46.3893 5.03733 -81.0931
rradius 80.9468
rwrist -23.415
rhand -24.8515 24.4287
rfingers 7.12502
rthumb 1.65503 -5.5446
lclavicle 4.21423e-014 -3.57812e-015
lhumerus -37.0293 -5.70308 87.0035
lradius 92.8271
lwrist 3.94142
lhand -16.87 9.14151
lfingers 7.12502
lthumb 9.36079 38.9137
rfemur -52.0169 -6.11427 21.7914
rtibia 67.0096
rfoot -13.5721 1.78029
rtoes -11.9272
lfemur -11.374 -0.353408 -26.3581
ltibia 58.6653
lfoot 32.3444 3.11996
ltoes 10.7669
78
root 0.214831 16.6335 -15.6925 18.971 -3.46368 2.94855
lowerback 17.4352 -1.08518 -1.99226
upperback 3.35084 -1.61114 2.45432
thorax -6.03904 -0.732628 4.11363
lowerneck -20.7172 -2.692 -10.6044
upperneck -0.273969 -1.41802 6.56329
head 3.26781 -0.388114 3.62582
rclavicle 1.70955e-014 -7.95139e-016
rhumerus -42.6145 6.11158 -81.7808
rradius 79.0548
rwrist -24.3386
rhand -24.7115 23.6736
rfingers 7.12502
rthumb 1.79024 -6.29864
lclavicle 1.70955e-014 -7.95139e-016
lhumerus -36.9887 -2.67132 85.634
lradius 86.9977
lwrist 4.28614
lhand -17.5415 10.6441
lfingers 7.12502
lthumb 8.71283 40.4443
rfemur -48.8797 -5.87103 22.0283
rtibia 65.876
rfoot -15.2923 1.29798
rtoes -14.1675
lfemur -13.8959 0.530112 -25.9373
ltibia 63.8913
lfoot 30.0903 4.52488
ltoes 12.2907
79
root 0.207082 16.6232 -15.2917 18.3382 -3.54186 2.36365
lowerback 18.2248 -0.954722 -1.36627
upperback 3.44649 -1.31109 2.70035
thorax -6.39605 -0.590522 3.97969
lowerneck -20.1221 -2.64323 -10.7438
upperneck -0.702287 -1.35637 6.25567
head 3.03976 -0.376909 3.55449
rclavicle -1.19271e-014 9.54166e-015
rhumerus -39.021 7.52536 -82.371
rradius 77.511
rwrist -24.2136
rhand -24.9617 23.0752
rfingers 7.12502
rthumb 1.54859 -6.89895
lclavicle -1.19271e-014 9.54166e-015
lhumerus -37.0346 0.488908 84.0838
lradius 81.0198
lwrist 6.4834
lhand -19.0694 10.3288
lfingers 7.12502
lthumb 7.23818 40.185
rfemur -45.5886 -5.39736 22.3188
rtibia 64.5806
rfoot -16.8989 0.859821
rtoes -16.0586
lfemur -16.7533 1.30211 -25.3558
ltibia 69.0529
lfoot 28.5588 4.67866
ltoes 17.5163
